<mxfile host="app.diagrams.net" modified="2022-03-09T05:59:30.554Z" agent="5.0 (Windows NT 10.0; Win64; x64) AppleWebKit/537.36 (KHTML, like Gecko) Chrome/98.0.4758.102 Safari/537.36" etag="gBz0x0lD8UYlgjAtyGlz" version="16.6.4" type="github">
  <diagram id="SesWTYNyWNFwf-nbPC2f" name="Page-1">
    <mxGraphModel dx="1550" dy="835" grid="1" gridSize="10" guides="1" tooltips="1" connect="1" arrows="1" fold="1" page="1" pageScale="1" pageWidth="827" pageHeight="1169" math="0" shadow="0">
      <root>
        <mxCell id="0" />
        <mxCell id="1" parent="0" />
        <mxCell id="-x9MxXMz68vuUTACGPA5-1" value="TC BOM&lt;br&gt;Excel?" style="shape=cylinder3;whiteSpace=wrap;html=1;boundedLbl=1;backgroundOutline=1;size=15;" vertex="1" parent="1">
          <mxGeometry x="550" y="173.5" width="100" height="80" as="geometry" />
        </mxCell>
        <mxCell id="-x9MxXMz68vuUTACGPA5-3" value="1. Import BOM excel" style="rounded=1;whiteSpace=wrap;html=1;" vertex="1" parent="1">
          <mxGeometry x="97.34999999999991" y="90" width="120" height="60" as="geometry" />
        </mxCell>
        <mxCell id="-x9MxXMz68vuUTACGPA5-4" value="2. Search BOM View&lt;br&gt;Engineering/Process&lt;br&gt;/Manufacturing" style="rounded=1;whiteSpace=wrap;html=1;" vertex="1" parent="1">
          <mxGeometry x="97" y="183.5" width="120" height="60" as="geometry" />
        </mxCell>
        <mxCell id="-x9MxXMz68vuUTACGPA5-7" value="2.1. Information" style="rounded=1;whiteSpace=wrap;html=1;" vertex="1" parent="1">
          <mxGeometry x="293.3499999999999" y="150" width="120" height="35" as="geometry" />
        </mxCell>
        <mxCell id="-x9MxXMz68vuUTACGPA5-8" value="2.2. Graph BOM" style="rounded=1;whiteSpace=wrap;html=1;" vertex="1" parent="1">
          <mxGeometry x="293.3499999999999" y="197" width="120" height="35" as="geometry" />
        </mxCell>
        <mxCell id="-x9MxXMz68vuUTACGPA5-9" value="2.3. History version" style="rounded=1;whiteSpace=wrap;html=1;" vertex="1" parent="1">
          <mxGeometry x="293.3499999999999" y="242" width="120" height="35" as="geometry" />
        </mxCell>
        <mxCell id="-x9MxXMz68vuUTACGPA5-11" value="" style="endArrow=classic;html=1;rounded=0;exitX=1;exitY=0.5;exitDx=0;exitDy=0;entryX=0;entryY=0.5;entryDx=0;entryDy=0;" edge="1" parent="1" source="-x9MxXMz68vuUTACGPA5-4" target="-x9MxXMz68vuUTACGPA5-7">
          <mxGeometry width="50" height="50" relative="1" as="geometry">
            <mxPoint x="323.3499999999999" y="18.5" as="sourcePoint" />
            <mxPoint x="373.3499999999999" y="-31.5" as="targetPoint" />
          </mxGeometry>
        </mxCell>
        <mxCell id="-x9MxXMz68vuUTACGPA5-12" value="" style="endArrow=classic;html=1;rounded=0;exitX=1;exitY=0.5;exitDx=0;exitDy=0;entryX=0;entryY=0.5;entryDx=0;entryDy=0;" edge="1" parent="1" source="-x9MxXMz68vuUTACGPA5-4" target="-x9MxXMz68vuUTACGPA5-8">
          <mxGeometry width="50" height="50" relative="1" as="geometry">
            <mxPoint x="227" y="223.5" as="sourcePoint" />
            <mxPoint x="303.3499999999999" y="177.5" as="targetPoint" />
          </mxGeometry>
        </mxCell>
        <mxCell id="-x9MxXMz68vuUTACGPA5-13" value="" style="endArrow=classic;html=1;rounded=0;exitX=1;exitY=0.5;exitDx=0;exitDy=0;entryX=0;entryY=0.5;entryDx=0;entryDy=0;" edge="1" parent="1" source="-x9MxXMz68vuUTACGPA5-4" target="-x9MxXMz68vuUTACGPA5-9">
          <mxGeometry width="50" height="50" relative="1" as="geometry">
            <mxPoint x="227" y="223.5" as="sourcePoint" />
            <mxPoint x="303.3499999999999" y="224.5" as="targetPoint" />
          </mxGeometry>
        </mxCell>
        <mxCell id="-x9MxXMz68vuUTACGPA5-14" value="3. BOM 视图转换规则" style="rounded=1;whiteSpace=wrap;html=1;" vertex="1" parent="1">
          <mxGeometry x="97" y="277" width="120" height="60" as="geometry" />
        </mxCell>
      </root>
    </mxGraphModel>
  </diagram>
</mxfile>
